<svg xmlns="http://www.w3.org/2000/svg" xmlns:xlink="http://www.w3.org/1999/xlink" version="1.1" x="0px" y="0px" viewBox="0 0 100 100" enable-background="new 0 0 100 100" xml:space="preserve"><path d="M6,26H2V8.451C2,4.894,4.895,2,8.451,2h17.502v4H8.451C7.1,6,6,7.1,6,8.451V26z"/><path d="M98,26h-4V8.451C94,7.1,92.9,6,91.549,6H74V2h17.549C95.105,2,98,4.894,98,8.451V26z"/><path d="M91.549,98H74v-4h17.549C92.9,94,94,92.9,94,91.549V74h4v17.549C98,95.105,95.105,98,91.549,98z"/><path d="M25.953,98H8.451C4.895,98,2,95.105,2,91.549V74h4v17.549C6,92.9,7.1,94,8.451,94h17.502V98z"/><path fill-rule="evenodd" clip-rule="evenodd" d="M40,18H18v22h22V18z M38,38H20V20h18V38z"/><rect x="24" y="24" fill-rule="evenodd" clip-rule="evenodd" width="10" height="10"/><path fill-rule="evenodd" clip-rule="evenodd" d="M18,82h22V60H18V82z M20,62h18v18H20V62z"/><rect x="24" y="66" fill-rule="evenodd" clip-rule="evenodd" width="10" height="10"/><path fill-rule="evenodd" clip-rule="evenodd" d="M60,18v22h22V18H60z M80,38H62V20h18V38z"/><rect x="66" y="24" fill-rule="evenodd" clip-rule="evenodd" width="10" height="10"/><rect x="52" y="18" fill-rule="evenodd" clip-rule="evenodd" width="6" height="4"/><rect x="50" y="22" fill-rule="evenodd" clip-rule="evenodd" width="1.954" height="2"/><rect x="42" y="18" fill-rule="evenodd" clip-rule="evenodd" width="2" height="6"/><rect x="46" y="24" fill-rule="evenodd" clip-rule="evenodd" width="4" height="4"/><polygon fill-rule="evenodd" clip-rule="evenodd" points="56,36 56,30 58,30 58,24 56,24 56,26 52,26 52,30 42,30 42,46 40,46   40,50 36,50 36,52 40,52 40,56 36,56 36,58 42,58 42,56 48,56 48,54 42,54 42,50 46,50 46,36 48,36 48,32 52,32 52,36 54,36 54,38   52,38 52,40 54,40 54,42 58,42 58,36 "/><rect x="50" y="36" fill-rule="evenodd" clip-rule="evenodd" width="2" height="2"/><rect x="42" y="60" fill-rule="evenodd" clip-rule="evenodd" width="6" height="2"/><rect x="48" y="62" fill-rule="evenodd" clip-rule="evenodd" width="4" height="4"/><rect x="42" y="66" fill-rule="evenodd" clip-rule="evenodd" width="4" height="4"/><rect x="46" y="70" fill-rule="evenodd" clip-rule="evenodd" width="6" height="4"/><rect x="42" y="74" fill-rule="evenodd" clip-rule="evenodd" width="4" height="8"/><polygon fill-rule="evenodd" clip-rule="evenodd" points="70,70 70,62 74,62 74,58 68,58 68,66 64,66 64,70 "/><rect x="62" y="76" fill-rule="evenodd" clip-rule="evenodd" width="2" height="2"/><polygon fill-rule="evenodd" clip-rule="evenodd" points="72,72 70,72 70,78 66,78 66,82 76,82 76,74 78,74 78,72 76,72 76,70   72,70 "/><rect x="78" y="78" fill-rule="evenodd" clip-rule="evenodd" width="4" height="4"/><rect x="48" y="42" fill-rule="evenodd" clip-rule="evenodd" width="4" height="4"/><rect x="50" y="48" fill-rule="evenodd" clip-rule="evenodd" width="4" height="4"/><polygon fill-rule="evenodd" clip-rule="evenodd" points="76,48 80,48 80,54 72,54 72,48 74,48 74,46 72,46 72,42 58,42 58,46   56,46 56,54 52,54 52,56 48,56 48,60 56,60 56,70 60,70 60,72 56,72 56,76 48,76 48,78 58,78 58,82 62,82 62,78 60,78 60,76 62,76   62,64 60,64 60,66 58,66 58,56 62,56 62,52 58,52 58,50 62,50 62,52 66,52 66,46 68,46 68,48 70,48 70,54 66,54 66,56 80,56 80,60   76,60 76,64 80,64 80,66 76,66 76,70 82,70 82,42 76,42 "/><rect x="18" y="42" fill-rule="evenodd" clip-rule="evenodd" width="8" height="4"/><polygon fill-rule="evenodd" clip-rule="evenodd" points="28,48 18,48 18,52 26,52 26,58 30,58 30,46 28,46 "/><rect x="30" y="42" fill-rule="evenodd" clip-rule="evenodd" width="10" height="4"/></svg>
